<svg xmlns="http://www.w3.org/2000/svg" width="526.88" height="68.25">
  <path d="M223.88 39.75h6.75q0 4.58 2.59 7.16 2.59 2.59 7.16 2.59 4.65 0 7.2-2.7t2.55-7.05v-3.9q0-4.65-2.55-7.2t-7.2-2.55h-5.62v-6.75l13.57-13.2h-22.2V0h29.03v6.75l-14.63 14.18v-.83a16.95 16.95 0 0 1 10.92 3.4 14.3 14.3 0 0 1 1 .88q4.43 4.27 4.43 11.47v3.9q0 4.73-2.06 8.25-2.06 3.52-5.81 5.51-3.75 1.99-8.7 1.99-4.95 0-8.67-1.99-3.7-1.98-5.73-5.51-2.03-3.52-2.03-8.25Zm45 0h6.75q0 4.58 2.59 7.16 2.59 2.59 7.16 2.59 4.65 0 7.2-2.7t2.55-7.05v-3.9q0-4.65-2.55-7.2t-7.2-2.55h-5.62v-6.75l13.57-13.2h-22.2V0h29.03v6.75l-14.63 14.18v-.83a16.95 16.95 0 0 1 10.92 3.4 14.3 14.3 0 0 1 1 .88q4.43 4.27 4.43 11.47v3.9q0 4.73-2.06 8.25-2.06 3.52-5.81 5.51-3.75 1.99-8.7 1.99-4.95 0-8.67-1.99-3.7-1.98-5.73-5.51-2.03-3.52-2.03-8.25Zm53.4 15h-6.75V13.5h6.75v7.88h1.43l-1.43 1.57q0-4.88 2.93-7.54 2.92-2.66 8.1-2.66 6.22 0 9.9 3.82a14.32 14.32 0 0 1 3.67 10.22 23.47 23.47 0 0 1 0 .21v27.75h-6.75v-27q0-4.43-2.36-6.79-2.36-2.36-6.41-2.36-4.2 0-6.64 2.55a10.14 10.14 0 0 0-2.44 7.2 18.7 18.7 0 0 0 0 .15v26.25Zm87.98 0h-7.88l14.63-21.23-13.73-20.02h7.95l8.18 12.75q.52.82 1 1.8l.8 1.57q.22-.6.7-1.57.5-.98 1.02-1.8l8.25-12.75h7.88l-13.73 20.1 14.55 21.15h-7.95l-8.85-13.5q-.52-.83-1.01-1.91-.49-1.09-.86-1.77-.3.68-.87 1.77-.56 1.08-1.16 1.91l-8.92 13.5Zm116.62 0h-31.5V48l23.1-28.35h-22.5V13.5h30.08v6.75L502.5 48.6h24.37v6.15Zm-62.7 13.5h-7.2l6.08-16.05-15.3-38.7h7.5l9.6 25.5q.52 1.27.97 3.04l.75 2.96.75-2.96q.45-1.77.9-3.04l9-25.5h7.28l-20.33 54.75Zm-314.4-13.5h-7.27l19.57-48.6h-20.7v8.1h-6.75V0h34.13v6.6l-18.98 48.15Zm62.1 0h-11.25q-5.32 0-8.29-2.85-2.96-2.85-2.96-8.02V19.64h-11.62V13.5h11.62V1.87h6.75V13.5h16.5v6.15h-16.5v24.23q0 4.72 4.5 4.72h11.25v6.15ZM.01 39.75V28.5q0-4.95 2.02-8.48 2.03-3.52 5.74-5.4 3.71-1.87 8.66-1.87a17.09 17.09 0 0 1 10.85 3.3 14.17 14.17 0 0 1 .63.52Q32.26 20.4 32.48 27h-6.75q-.22-3.98-2.66-6.11-2.44-2.14-6.64-2.14-4.42 0-7.05 2.51-2.62 2.51-2.62 7.16v11.33q0 4.65 2.62 7.2 2.63 2.55 7.05 2.55 4.2 0 6.64-2.17 2.44-2.18 2.66-6.08h6.75q-.22 6.6-4.57 10.42a16.6 16.6 0 0 1-11.15 3.83 26.18 26.18 0 0 1-.33 0q-4.95 0-8.66-1.88-3.71-1.87-5.74-5.43Q.01 44.63.01 39.75Zm65.7 15h-9.15L42.76 13.5h6.9l9.15 27.75q.82 2.48 1.5 4.76.67 2.29.97 3.57L62.33 46l1.43-4.76 8.92-27.75h6.83L65.7 54.75Zm40.42.75q-2.85 0-4.54-1.65-1.68-1.65-1.68-4.43 0-2.92 1.68-4.65 1.7-1.72 4.54-1.72 2.85 0 4.54 1.73 1.69 1.72 1.69 4.64 0 2.78-1.7 4.43-1.68 1.65-4.53 1.65Zm270 0q-2.85 0-4.54-1.65-1.68-1.65-1.68-4.43 0-2.92 1.68-4.65 1.7-1.72 4.54-1.72 2.85 0 4.54 1.73 1.69 1.72 1.69 4.64 0 2.78-1.7 4.43-1.68 1.65-4.53 1.65Z" style="fill:#3182ce"/>
</svg>
